<?xml version="1.0" standalone="no"?>
<!DOCTYPE svg PUBLIC "-//W3C//DTD SVG 20010904//EN"
 "http://www.w3.org/TR/2001/REC-SVG-20010904/DTD/svg10.dtd">
<svg version="1.0" xmlns="http://www.w3.org/2000/svg"
 width="225.000000pt" height="225.000000pt" viewBox="0 0 225.000000 225.000000"
 preserveAspectRatio="xMidYMid meet">

<g transform="translate(0.000000,225.000000) scale(0.100000,-0.100000)"
fill="#000000" stroke="none">
<path d="M623 1460 c-45 -20 -59 -36 -22 -25 20 7 21 5 15 -21 -14 -55 -128
-186 -278 -322 -26 -23 -43 -42 -37 -42 17 0 312 301 347 354 31 48 40 76 25
76 -5 0 -27 -9 -50 -20z"/>
<path d="M830 1400 c8 -5 23 -10 32 -10 9 0 22 -8 27 -17 6 -10 11 -13 11 -7
0 16 -20 30 -55 38 -22 5 -26 4 -15 -4z"/>
<path d="M528 1393 c7 -3 16 -2 19 1 4 3 -2 6 -13 5 -11 0 -14 -3 -6 -6z"/>
<path d="M451 1379 c-39 -16 -18 -19 24 -4 22 8 31 14 20 14 -11 0 -31 -5 -44
-10z"/>
<path d="M400 1359 c0 -5 -3 -8 -7 -6 -5 3 -17 1 -28 -4 l-20 -8 20 0 c16 -1
17 -3 5 -11 -9 -6 -20 -5 -30 3 -13 10 -13 10 -2 -5 8 -10 9 -18 3 -22 -6 -4
-8 -13 -4 -21 4 -11 1 -13 -12 -9 -10 4 -15 14 -12 25 3 11 1 17 -4 13 -16 -9
-10 -33 11 -44 19 -10 22 -9 24 17 1 6 19 28 41 47 22 19 34 35 28 36 -7 0
-13 -5 -13 -11z"/>
<path d="M825 1340 c-3 -6 1 -7 9 -4 18 7 21 14 7 14 -6 0 -13 -4 -16 -10z"/>
<path d="M1653 1343 c15 -2 39 -2 55 0 15 2 2 4 -28 4 -30 0 -43 -2 -27 -4z"/>
<path d="M1950 1341 c-42 -6 -21 -8 90 -10 80 0 156 -4 170 -6 l25 -6 -24 11
c-32 14 -190 20 -261 11z"/>
<path d="M311 1211 c-130 -129 -221 -240 -221 -268 0 -21 40 -10 91 24 45 30
49 36 14 23 -83 -32 13 116 179 272 44 43 78 77 74 78 -4 0 -66 -58 -137 -129z"/>
<path d="M790 1320 c-9 -6 -10 -10 -3 -10 6 0 15 5 18 10 8 12 4 12 -15 0z"/>
<path d="M1698 1323 c12 -2 32 -2 45 0 12 2 2 4 -23 4 -25 0 -35 -2 -22 -4z"/>
<path d="M1588 1313 c6 -2 18 -2 25 0 6 3 1 5 -13 5 -14 0 -19 -2 -12 -5z"/>
<path d="M715 1289 c-27 -10 -41 -17 -30 -17 30 0 102 23 90 29 -5 3 -32 -3
-60 -12z"/>
<path d="M2205 1290 c-3 -6 1 -7 9 -4 18 7 21 14 7 14 -6 0 -13 -4 -16 -10z"/>
<path d="M628 1263 c6 -2 18 -2 25 0 6 3 1 5 -13 5 -14 0 -19 -2 -12 -5z"/>
<path d="M563 1253 c9 -2 23 -2 30 0 6 3 -1 5 -18 5 -16 0 -22 -2 -12 -5z"/>
<path d="M2049 1253 c-28 -7 -158 -298 -141 -315 15 -15 48 23 67 77 10 28 35
85 56 127 45 89 45 90 22 81 -11 -4 -14 -3 -9 5 4 7 16 12 27 12 11 0 17 5 14
10 -6 10 -9 11 -36 3z"/>
<path d="M1635 1232 c-5 -4 -17 -20 -26 -36 -10 -17 -31 -34 -50 -40 -40 -13
-51 -36 -14 -29 14 3 25 2 25 -1 0 -4 -13 -33 -30 -66 -37 -74 -39 -106 -5
-122 20 -9 33 -8 65 7 22 10 46 25 53 33 10 12 5 12 -21 -2 -39 -20 -72 -13
-72 15 0 11 14 46 30 79 26 52 34 60 58 60 16 0 37 7 48 15 18 14 17 14 -15
15 -29 0 -32 3 -27 20 3 11 9 29 12 40 6 20 -11 27 -31 12z"/>
<path d="M458 1153 c-18 -20 -98 -194 -98 -212 0 -33 52 10 71 59 33 90 80
137 123 126 13 -3 31 1 42 9 16 13 17 16 4 25 -18 12 -59 4 -81 -16 -22 -20
-31 -17 -24 6 8 25 -16 27 -37 3z"/>
<path d="M670 1154 c-92 -40 -156 -155 -117 -209 11 -14 23 -17 61 -13 81 9
166 95 166 168 0 59 -47 82 -110 54z m55 -34 c17 -19 17 -25 6 -58 -17 -48
-38 -71 -79 -89 -26 -11 -37 -11 -48 -2 -46 38 23 164 92 168 6 1 19 -8 29
-19z"/>
<path d="M1165 1151 c-22 -10 -51 -30 -65 -45 -30 -33 -21 -54 35 -73 57 -20
64 -31 36 -54 -29 -23 -78 -25 -103 -2 -22 19 -42 6 -36 -23 3 -16 13 -19 65
-19 54 0 66 4 100 31 56 46 52 74 -14 98 -59 21 -70 45 -28 64 35 16 55 15 77
-4 14 -14 20 -14 33 -4 52 43 -24 66 -100 31z"/>
<path d="M878 1144 c-44 -24 -32 -33 22 -17 53 15 90 6 90 -22 0 -16 -36 -39
-48 -31 -16 9 -97 -16 -128 -39 -36 -27 -51 -70 -33 -91 15 -19 89 -18 117 2
20 14 22 14 22 -1 0 -37 36 -7 67 55 39 80 50 125 33 145 -16 20 -106 19 -142
-1z m67 -123 c0 -42 -76 -82 -109 -58 -38 28 19 89 79 84 24 -2 30 -7 30 -26z"/>
<path d="M1385 1146 c-70 -31 -128 -129 -110 -185 15 -48 123 -41 183 12 32
29 27 42 -6 18 -36 -25 -75 -35 -107 -27 -20 5 -25 13 -25 36 0 27 3 30 30 30
68 0 145 57 138 102 -2 18 -10 23 -38 25 -19 2 -48 -3 -65 -11z m53 -37 c2
-18 -5 -29 -27 -42 -27 -16 -81 -24 -81 -12 0 15 36 58 59 70 33 18 45 14 49
-16z"/>
<path d="M1785 1143 c-64 -33 -105 -95 -105 -156 0 -44 15 -57 67 -57 50 0 87
17 122 54 31 33 22 33 -25 1 -60 -41 -132 -28 -122 22 2 13 15 20 44 23 76 11
147 72 131 113 -8 22 -71 22 -112 0z m63 -29 c4 -27 -27 -54 -72 -61 -47 -7
-47 8 -1 54 37 37 68 41 73 7z"/>
<path d="M1292 870 c0 -19 2 -27 5 -17 2 9 2 25 0 35 -3 9 -5 1 -5 -18z"/>
<path d="M310 875 c0 -8 2 -15 4 -15 2 0 6 7 10 15 3 8 1 15 -4 15 -6 0 -10
-7 -10 -15z"/>
<path d="M530 875 c-7 -9 -11 -17 -9 -20 3 -2 10 5 17 15 14 24 10 26 -8 5z"/>
<path d="M572 860 c0 -19 2 -27 5 -17 2 9 2 25 0 35 -3 9 -5 1 -5 -18z"/>
<path d="M747 870 c3 -11 10 -23 16 -27 7 -4 8 0 4 11 -4 10 -7 22 -7 27 0 5
-4 9 -9 9 -5 0 -7 -9 -4 -20z"/>
<path d="M1212 865 c0 -16 2 -22 5 -12 2 9 2 23 0 30 -3 6 -5 -1 -5 -18z"/>
<path d="M1672 865 c0 -16 2 -22 5 -12 2 9 2 23 0 30 -3 6 -5 -1 -5 -18z"/>
<path d="M1842 865 c0 -16 2 -22 5 -12 2 9 2 23 0 30 -3 6 -5 -1 -5 -18z"/>
<path d="M342 855 c0 -16 2 -22 5 -12 2 9 2 23 0 30 -3 6 -5 -1 -5 -18z"/>
<path d="M372 860 c0 -14 2 -19 5 -12 2 6 2 18 0 25 -3 6 -5 1 -5 -13z"/>
<path d="M398 857 c-3 -19 -2 -25 4 -19 6 6 8 18 6 28 -3 14 -5 12 -10 -9z"/>
<path d="M428 849 c4 -27 6 -29 14 -14 7 12 6 21 -4 32 -13 12 -14 10 -10 -18z"/>
<path d="M473 861 c1 -14 9 -26 17 -28 10 -3 11 -2 4 4 -7 4 -14 17 -17 28 -5
16 -5 15 -4 -4z"/>
<path d="M600 861 c0 -11 4 -22 9 -25 4 -3 6 6 3 19 -5 30 -12 33 -12 6z"/>
<path d="M632 860 c0 -14 2 -19 5 -12 2 6 2 18 0 25 -3 6 -5 1 -5 -13z"/>
<path d="M660 871 c0 -6 4 -13 10 -16 6 -3 7 1 4 9 -7 18 -14 21 -14 7z"/>
<path d="M780 872 c0 -4 10 -13 23 -21 22 -14 22 -14 3 8 -20 22 -26 25 -26
13z"/>
<path d="M833 861 c1 -14 9 -26 17 -28 10 -3 11 -2 4 4 -7 4 -14 17 -17 28 -5
16 -5 15 -4 -4z"/>
<path d="M956 867 c3 -10 9 -15 12 -12 3 3 0 11 -7 18 -10 9 -11 8 -5 -6z"/>
<path d="M980 860 c0 -11 2 -20 4 -20 2 0 6 9 9 20 3 11 1 20 -4 20 -5 0 -9
-9 -9 -20z"/>
<path d="M1068 855 c2 -14 6 -25 8 -25 2 0 4 11 4 25 0 14 -4 25 -9 25 -4 0
-6 -11 -3 -25z"/>
<path d="M1121 875 c1 -19 18 -51 18 -35 0 8 -4 22 -9 30 -5 8 -9 11 -9 5z"/>
<path d="M1243 861 c1 -14 9 -26 17 -28 10 -3 11 -2 4 4 -7 4 -14 17 -17 28
-5 16 -5 15 -4 -4z"/>
<path d="M1323 861 c1 -14 9 -26 17 -28 10 -3 11 -2 4 4 -7 4 -14 17 -17 28
-5 16 -5 15 -4 -4z"/>
<path d="M1345 870 c3 -5 8 -10 11 -10 2 0 4 5 4 10 0 6 -5 10 -11 10 -5 0 -7
-4 -4 -10z"/>
<path d="M1375 869 c-4 -6 -5 -12 -2 -15 2 -3 7 2 10 11 7 17 1 20 -8 4z"/>
<path d="M1422 860 c0 -14 2 -19 5 -12 2 6 2 18 0 25 -3 6 -5 1 -5 -13z"/>
<path d="M1452 860 c0 -14 2 -19 5 -12 2 6 2 18 0 25 -3 6 -5 1 -5 -13z"/>
<path d="M1532 860 c0 -14 2 -19 5 -12 2 6 2 18 0 25 -3 6 -5 1 -5 -13z"/>
<path d="M1562 855 c0 -16 2 -22 5 -12 2 9 2 23 0 30 -3 6 -5 -1 -5 -18z"/>
<path d="M1592 860 c0 -14 2 -19 5 -12 2 6 2 18 0 25 -3 6 -5 1 -5 -13z"/>
<path d="M1642 860 c0 -14 2 -19 5 -12 2 6 2 18 0 25 -3 6 -5 1 -5 -13z"/>
<path d="M1700 861 c0 -11 4 -22 9 -25 4 -3 6 6 3 19 -5 30 -12 33 -12 6z"/>
<path d="M1760 866 c0 -8 4 -17 9 -20 5 -4 7 3 4 14 -6 23 -13 26 -13 6z"/>
<path d="M1794 865 c-7 -17 3 -35 19 -35 8 0 7 3 -2 9 -8 5 -11 16 -8 25 4 9
4 16 1 16 -2 0 -7 -7 -10 -15z"/>
<path d="M1894 860 c0 -13 4 -16 10 -10 7 7 7 13 0 20 -6 6 -10 3 -10 -10z"/>
<path d="M1922 855 c0 -16 2 -22 5 -12 2 9 2 23 0 30 -3 6 -5 -1 -5 -18z"/>
<path d="M1952 860 c0 -14 2 -19 5 -12 2 6 2 18 0 25 -3 6 -5 1 -5 -13z"/>
<path d="M1982 860 c0 -14 2 -19 5 -12 2 6 2 18 0 25 -3 6 -5 1 -5 -13z"/>
<path d="M2030 876 c0 -4 7 -14 15 -22 8 -9 15 -11 15 -6 0 5 -7 15 -15 22 -8
7 -15 9 -15 6z"/>
<path d="M1041 844 c0 -11 3 -14 6 -6 3 7 2 16 -1 19 -3 4 -6 -2 -5 -13z"/>
</g>
</svg>
